<?xml version="1.0" encoding="utf-8"?>
<!-- Generator: Adobe Illustrator 22.0.1, SVG Export Plug-In . SVG Version: 6.00 Build 0)  -->
<svg version="1.1" id="Layer_1" xmlns="http://www.w3.org/2000/svg" xmlns:xlink="http://www.w3.org/1999/xlink" x="0px" y="0px"
	 viewBox="0 0 503 489" style="enable-background:new 0 0 503 489;" xml:space="preserve">
<style type="text/css">
	.st0{fill:none;}
	.st1{fill:#D9CFC7;}
</style>
<rect x="820" y="-86" class="st0" width="9" height="6"/>
<g>
	<path class="st1" d="M4.7,174.9l159.6,1c28.1,0,47.7,9.2,61.2,24.6c14,16,19,30.5,19,51c0,17.2-3.5,33.3-8,40c-4,6-15,18-28,25
		c19,8,25,14.1,34,27c9,13,12,29,12,48c0,15.1-3,23-9,37c-5.5,12.8-10,18-19,27c-6,6-14,12-28,17c-16.7,6-35.4,7-42,7L4.7,479.4
		V174.9z M75.5,294.5l59.2-0.3c14,0,29.3-2.1,35.3-6.3c6.5-4.5,14.5-9.5,14.3-24c-0.3-20.5-5.8-24.1-11.3-28.9
		c-5.5-4.8-24.1-7.2-37.7-7.2l-59.8-1.4V294.5z M75.5,425.5h64c15.5,0,33-1,44-16c5-6.8,6-18,6-29c0-8.6-3-20-15-28
		c-6.8-4.5-17.2-7-33-7h-66V425.5z"/>
</g>
<g>
	<path class="st1" d="M494.5,376.5l-160-1c1.3,13.7,2.1,28.7,16,42c9.8,9.4,26,13,39,13c8,0,15.4-0.1,23-4c6.4-3.3,18-13,21-21h58
		c-4,27-27.6,46.9-42.8,56.6c-15.2,9.7-37.1,14.5-65.5,14.5c-24.7,0-44.2-7.2-58.3-15.4c-14.2-8.3-25.9-18.5-35.2-36.5
		c-9.3-18.1-14-39.3-14-63.7c0-34.7,8.5-63.6,28-84.3c19.8-21.1,44.5-32.2,77.4-32.2c26.7,0,47.8,3.8,63.3,13.4
		c15.5,9.6,29.8,24.7,38.3,42.8c7.9,16.8,12.9,41.8,12.1,71.3L494.5,376.5z M434.5,338.5c-1.4-16.5-8.1-28.9-15-35c-9-8-19-11-35-11
		c-11.4,0-21,1-33,12c-5.9,5.4-13.8,20.8-15,34H434.5z"/>
</g>
<rect x="324.5" y="187.5" class="st1" width="122" height="31"/>
</svg>
