<?xml version="1.0" encoding="utf-8"?>
<!-- Generator: Adobe Illustrator 22.0.1, SVG Export Plug-In . SVG Version: 6.00 Build 0)  -->
<svg version="1.1" id="Layer_1" xmlns="http://www.w3.org/2000/svg" xmlns:xlink="http://www.w3.org/1999/xlink" x="0px" y="0px"
	 viewBox="0 0 134.5 112.5" style="enable-background:new 0 0 134.5 112.5;" xml:space="preserve">
<style type="text/css">
	.st0{fill:#E1DBD1;}
</style>
<g>
	<path class="st0" d="M120.6,68h-105c-6.6,0-12-5.4-12-12v-1c0-6.6,5.4-12,12-12h105c6.6,0,12,5.4,12,12v1
		C132.6,62.6,127.2,68,120.6,68z"/>
</g>
<g>
	<path class="st0" d="M120.6,108h-105c-6.6,0-12-5.4-12-12v-1c0-6.6,5.4-12,12-12h105c6.6,0,12,5.4,12,12v1
		C132.6,102.6,127.2,108,120.6,108z"/>
</g>
<g>
	<path class="st0" d="M120.6,28h-105c-6.6,0-12-5.4-12-12v-1c0-6.6,5.4-12,12-12h105c6.6,0,12,5.4,12,12v1
		C132.6,22.6,127.2,28,120.6,28z"/>
</g>
</svg>
