<?xml version="1.0" encoding="utf-8"?>
<!-- Generator: Adobe Illustrator 22.0.1, SVG Export Plug-In . SVG Version: 6.00 Build 0)  -->
<svg version="1.1" id="Layer_1" xmlns="http://www.w3.org/2000/svg" xmlns:xlink="http://www.w3.org/1999/xlink" x="0px" y="0px"
	 viewBox="0 0 503 489" style="enable-background:new 0 0 503 489;" xml:space="preserve">
<style type="text/css">
	.st0{fill:#D9CFC7;}
</style>
<ellipse class="st0" cx="88" cy="117.8" rx="52" ry="47.7"/>
<rect x="41.2" y="202.7" class="st0" width="91.9" height="277.3"/>
<path class="st0" d="M465,480l-0.9-124.8c0,0-2-41.6-3.5-72.8c-1.7-37.3-19.9-56.3-41.6-69.3c-25-15-50.8-20.1-79.7-14.7
	c-32.9,6.1-51.1,19.9-63.3,43.8v-39.4h-91.9V480h91.9V313.2c0,0-1-16.3,15.6-30.8c16-13.9,32.1-13,38.1-13c0,0,24.3,2.6,32.9,18.2
	s9.5,28.6,9.5,36.4c0,7.8-0.9,156-0.9,156H465z"/>
</svg>
