<?xml version="1.0" encoding="utf-8"?>
<!-- Generator: Adobe Illustrator 22.0.1, SVG Export Plug-In . SVG Version: 6.00 Build 0)  -->
<svg version="1.1" id="Layer_1" xmlns="http://www.w3.org/2000/svg" xmlns:xlink="http://www.w3.org/1999/xlink" x="0px" y="0px"
	 viewBox="0 0 503 489" style="enable-background:new 0 0 503 489;" xml:space="preserve">
<style type="text/css">
	.st0{fill:none;}
	.st1{fill:#D9CFC7;stroke:#D9CFC7;stroke-miterlimit:10;}
</style>
<rect x="820" y="-86" class="st0" width="9" height="6"/>
<path class="st1" d="M177.7,479.5c0,0-4.2,3.4-11,0c-29.8-14.9-75.3-36.4-104.1-52.5c-3.6-1.9-9.3-5.9-9.3-5.9s-5-3.2-5.1-9.3
	c-0.8-67.3-1.7-208.2-1.7-267.4c0-3.6,1.1-6.1,4.2-8c4.8-3,9.4-1.2,16.1,2.1c40.6,20.3,117.2,59.7,117.2,59.7s-0.8,215.4-0.4,271.2
	C183.7,476.4,177.7,479.5,177.7,479.5z"/>
<polygon class="st1" points="319.4,418.1 185.7,201.5 185.7,351.3 "/>
<path class="st1" d="M456.5,197.3c-74.5,126.9-135.4,220-135.4,220l-88.8-144.7l64.3-105.8c0,0,13.5-22,18.6-28.8
	c0.8-1.1,3.2-3,4.7-3.8c1.7-0.8,3.4-1.6,5.5-1.3c3,0.4,4.7,1.1,5.9,1.7c8,3.8,22.8,11,22.8,11S389,164.5,456.5,197.3z"/>
<path class="st1" d="M456.5,203.2c0,0-0.4,200.1-0.4,267c0,3.4-1.7,5.9-4.2,7.6s-9.6,2.8-13.5,0.8c-42.3-21.2-115.5-58.8-115.5-58.8
	L456.5,203.2z"/>
</svg>
