<?xml version="1.0" encoding="utf-8"?>
<!-- Generator: Adobe Illustrator 22.0.1, SVG Export Plug-In . SVG Version: 6.00 Build 0)  -->
<svg version="1.1" id="Layer_1" xmlns="http://www.w3.org/2000/svg" xmlns:xlink="http://www.w3.org/1999/xlink" x="0px" y="0px"
	 viewBox="0 0 1366 768" style="enable-background:new 0 0 1366 768;" xml:space="preserve">
<style type="text/css">
	.st0{fill:none;stroke:#F0E8EA;stroke-miterlimit:10;}
	.st1{fill:none;stroke:#D6C1AF;stroke-miterlimit:10;}
	.st2{fill:none;stroke:#8E848E;stroke-miterlimit:10;}
</style>
<polygon class="st0" points="398.6,158.8 389.1,154.6 380.2,160 381.3,149.7 373.3,142.9 383.5,140.7 387.5,131.1 392.8,140.1 
	403.1,140.9 396.2,148.7 "/>
<polygon class="st0" points="1154.8,422.2 1150.6,421.3 1147.5,424.3 1147,420 1143.3,417.9 1147.2,416.2 1148,412 1150.9,415.2 
	1155.1,414.7 1152.9,418.4 "/>
<polygon class="st0" points="380.5,582.1 375.7,583 373.7,587.4 371.4,583.1 366.6,582.6 370,579.1 369,574.3 373.4,576.5 
	377.6,574 376.9,578.9 "/>
<polygon class="st0" points="868.2,357.9 862.5,355.5 857.3,358.8 857.9,352.6 853.1,348.7 859.1,347.3 861.4,341.6 864.6,346.9 
	870.7,347.3 866.7,351.9 "/>
<polygon class="st0" points="1264.3,74.3 1259,74 1255.7,78.3 1254.3,73.1 1249.3,71.2 1253.8,68.3 1254,62.9 1258.1,66.4 
	1263.3,64.9 1261.3,69.9 "/>
<polygon class="st0" points="653,705.8 647,705.8 643.6,710.7 641.8,705 636.1,703.2 640.9,699.8 640.8,693.8 645.6,697.3 
	651.3,695.4 649.4,701 "/>
<rect x="98.5" y="332.3" class="st1" width="9" height="9"/>
<rect x="983.3" y="115.1" class="st1" width="12.1" height="13.1"/>
<rect x="944.1" y="625.9" class="st1" width="24.1" height="13.1"/>
<rect x="1256.8" y="542.4" class="st1" width="12.1" height="12.1"/>
<rect x="518.8" y="300.1" class="st1" width="8" height="8"/>
<rect x="119.6" y="702.3" class="st1" width="24.1" height="8"/>
<rect x="164.8" y="27.6" class="st1" width="14.1" height="14.1"/>
<rect x="636.4" y="17.5" class="st1" width="10.1" height="10.1"/>
<line class="st2" x1="143.7" y1="522.3" x2="164.8" y2="522.3"/>
<line class="st2" x1="757.1" y1="138.2" x2="757.1" y2="153.3"/>
<line class="st2" x1="1034.6" y1="548.4" x2="1053.7" y2="548.4"/>
<line class="st2" x1="1229.7" y1="735.5" x2="1229.7" y2="752.6"/>
<line class="st2" x1="177.2" y1="201.3" x2="177.2" y2="219.4"/>
<line class="st2" x1="573.3" y1="567.3" x2="552.2" y2="567.3"/>
<line class="st2" x1="1169.6" y1="224.5" x2="1154.5" y2="244.6"/>
<line class="st2" x1="1188.7" y1="248.6" x2="1169.6" y2="224.5"/>
</svg>
